<svg width="198" height="70" viewBox="0 0 198 70" fill="none" xmlns="http://www.w3.org/2000/svg">
<path d="M19.2996 70C6.43318 70 5.07692 61.3886 5.07692 57.8011V27.7083H0V3.64583H5.07692V0H33.3626V3.64583H58.022V57.8011C58.022 61.3886 56.818 70 43.9516 70H19.2996Z" fill="#212427"/>
<path d="M68.4152 70C55.556 70 54.3956 61.3886 54.3956 57.8011V11.9583C54.3956 8.31243 55.556 0 68.4152 0H93.0745C105.934 0 107.341 8.31243 107.341 11.9583V70H68.4152Z" fill="#212427"/>
<path d="M19.2996 65.362C12.6996 65.362 9.39959 62.8417 9.39959 57.8007V23.2527H4.54028V8.12977H9.39959V4.20694H29.1996V8.12977H53.859V23.2527H29.1996V49.9475C29.1996 50.0788 29.2577 50.1444 29.3882 50.1444H33.9574C34.0879 50.1444 34.146 50.0788 34.146 49.9475V27.1757H53.8517V57.8007C53.8517 62.8368 50.5517 65.3572 43.9517 65.362H19.2996Z" fill="#4CAF50"/>
<path d="M68.4152 65.3621C61.8152 65.3621 58.5153 62.8417 58.5153 57.8007V11.9579C58.5153 6.78568 61.8152 4.20209 68.4152 4.20695H93.0745C99.6745 4.20695 102.975 6.79054 102.975 11.9579V22.2903H83.1746V19.6871C83.1746 19.5559 83.1093 19.4976 82.9788 19.4976H78.511C78.3805 19.4976 78.3152 19.5559 78.3152 19.6871V49.9257C78.3116 49.9524 78.3143 49.9795 78.3228 50.0051C78.3314 50.0306 78.3457 50.0538 78.3646 50.0729C78.3836 50.0919 78.4067 50.1063 78.4321 50.1149C78.4575 50.1235 78.4845 50.1262 78.511 50.1226H83.1746V27.9195H102.989V65.3403L68.4152 65.3621Z" fill="#4CAF50"/>
<path d="M125.231 3.63898V6.46912H118.162V13.5383H115.338V3.63898H125.231Z" fill="#4CAF50"/>
<path fill-rule="evenodd" clip-rule="evenodd" d="M128.87 0V10.1081H121.801V17.1773H111.699V0H128.87ZM125.231 6.46914V3.639H115.338V13.5383H118.162V6.46914H125.231Z" fill="#212427"/>
<path d="M194.361 13.5317H191.53V6.46259H184.461V3.63898H194.361V13.5317Z" fill="#4CAF50"/>
<path fill-rule="evenodd" clip-rule="evenodd" d="M198 17.1708H187.891V10.1016H180.822V0H198V17.1708ZM191.53 13.5318H194.361V3.639H184.461V6.46261H191.53V13.5318Z" fill="#212427"/>
<path d="M184.461 66.361V63.5307H191.53V56.4616H194.354V66.361H184.461Z" fill="#4CAF50"/>
<path fill-rule="evenodd" clip-rule="evenodd" d="M180.822 70V59.8917H187.891V52.8226H197.993V70H180.822ZM184.461 63.5307V66.361H194.354V56.4616H191.53V63.5307H184.461Z" fill="#212427"/>
<path d="M115.331 56.4616H118.162V63.5373H125.231V66.361H115.331V56.4616Z" fill="#4CAF50"/>
<path fill-rule="evenodd" clip-rule="evenodd" d="M111.692 52.8226H121.801V59.8982H128.87V70H111.692V52.8226ZM118.162 56.4616H115.331V66.361H125.231V63.5372H118.162V56.4616Z" fill="#212427"/>
<ellipse cx="155.08" cy="32.0833" rx="17.1363" ry="22.6042" fill="#4CAF50"/>
<path d="M172.989 32.3312L172.836 32.2583C172.778 31.0552 172.661 28.0583 172.792 26.1479C172.915 23.5929 172.451 21.0439 171.436 18.6958C170.608 16.978 169.529 15.393 168.235 13.9927C166.811 12.1343 165.013 10.5964 162.955 9.47912C160.706 8.48499 158.268 7.98758 155.809 8.02079C152.462 8.02079 147.963 8.07912 144.871 9.92391C142.918 11.2168 141.209 12.8462 139.825 14.7364C137.185 17.9885 136.42 22.0281 136.704 26.1625C136.828 27.9416 136.784 30.727 136.755 32.1125C136.568 32.1578 136.392 32.2395 136.237 32.3531C135.005 33.2135 135.399 35.4302 135.858 37.4572L135.946 37.8364C136.128 38.6895 136.245 39.3604 136.339 39.9218C136.48 41.0598 136.774 42.1735 137.214 43.2322C137.405 43.8283 137.74 44.3683 138.189 44.8045C138.638 45.2407 139.187 45.5596 139.789 45.7333C139.797 45.7995 139.809 45.8652 139.825 45.9302C140.365 48.8468 140.846 50.6333 141.283 51.4354C142.348 53.3312 146.57 58.4062 148.955 59.8135C150.842 60.8053 152.948 61.3068 155.08 61.2718C156.949 61.3414 158.801 60.8868 160.425 59.9593C162.518 58.5885 166.324 54.6072 167.44 52.6093C167.965 51.6833 168.57 49.452 169.3 45.9375C169.3 45.8718 169.3 45.8135 169.3 45.7479C169.916 45.5854 170.482 45.2695 170.943 44.8297C171.405 44.3898 171.747 43.8403 171.939 43.2322C172.397 42.1639 172.706 41.0378 172.858 39.8854C172.96 39.3166 173.077 38.6458 173.259 37.7927L173.339 37.4135C173.828 35.4083 174.214 33.1989 172.989 32.3312ZM150.544 50.3125L154.715 49.5833L158.777 50.3125L155.08 51.4062L150.544 50.3125ZM168.643 41.4385C168.639 41.4502 168.639 41.4632 168.643 41.475C168.643 41.5479 168.643 41.6135 168.592 41.6937C167.637 42.2143 166.852 42.999 166.332 43.9541C165.869 44.6869 165.455 45.4493 165.092 46.2364L165.012 46.4041C163.823 49.0802 163.094 49.9406 162.773 50.2104V49.9041C162.773 49.7947 162.773 49.7 162.773 49.627V49.1312C162.827 48.044 162.607 46.9606 162.131 45.9812C161.351 44.6541 159.215 44.5229 157.873 44.0927C156.728 43.7135 156.145 43.3635 155.065 43.3635C153.991 43.409 152.935 43.6564 151.952 44.0927C150.967 44.4208 149.035 44.4427 148.08 44.902C147.669 45.1573 147.325 45.5081 147.079 45.9245C146.833 46.3409 146.691 46.8106 146.665 47.2937C146.541 48.2489 146.665 49.226 146.461 50.2104C144.725 47.8041 143.879 44.8437 141.911 42.6197L141.59 42.2916C141.39 42.0586 141.202 41.8152 141.028 41.5625L140.7 41.0885C140.664 41.0447 140.613 40.9718 140.547 40.8989C140.526 40.883 140.509 40.8632 140.496 40.8406C140.241 39.5572 140.037 37.6322 139.876 35.8312C140.401 37.1551 141.367 38.2573 142.611 38.952C143.944 39.5851 145.408 39.8925 146.884 39.8489C148.222 39.8632 149.55 39.6155 150.792 39.1197C152.17 38.5364 152.98 36.6989 153.417 35.051C153.528 34.8408 153.685 34.6587 153.877 34.5187C153.95 34.4494 154.031 34.3883 154.117 34.3364C154.233 34.2609 154.362 34.2066 154.497 34.176C154.747 34.1301 155.005 34.174 155.226 34.3C155.382 34.407 155.508 34.5527 155.59 34.7229C155.65 34.8139 155.704 34.9089 155.751 35.0072C156.174 36.6406 156.998 38.5 158.361 39.0906C159.604 39.5863 160.932 39.834 162.27 39.8197C163.745 39.8634 165.21 39.556 166.543 38.9229C167.874 38.1644 168.888 36.9535 169.402 35.5104C169.285 37.5014 169.031 39.4821 168.643 41.4385ZM169.737 31.2302C168.454 30.9604 161.716 29.6843 156.145 31.2302C155.115 31.4442 154.053 31.4442 153.024 31.2302C147.569 29.6916 141.028 30.8729 139.526 31.1791C139.526 30.8802 139.49 30.6395 139.482 30.45L140.372 28.6708L140.321 28.4302C139.985 26.3651 139.892 24.2679 140.044 22.1812C140.197 19.6364 143.836 16.975 144.959 16.0416C145.834 15.9946 146.711 16.0092 147.584 16.0854C148.094 16.0854 148.605 16.1437 149.122 16.1583C149.935 16.2018 150.744 16.2992 151.543 16.45C152.548 16.6488 153.568 16.761 154.591 16.7854C155.664 16.7636 156.732 16.6514 157.785 16.45C158.456 16.3479 159.149 16.2312 159.856 16.1729L160.389 16.1291C161.464 16.0128 162.547 15.9835 163.626 16.0416C164.042 16.3114 169.022 18.9583 169.212 22.2104C169.358 24.2969 169.268 26.3932 168.942 28.4593L168.891 28.7072L169.774 30.4791C169.766 30.625 169.752 30.902 169.737 31.2156V31.2302Z" fill="#212427"/>
</svg>
