<svg width="261" height="109" viewBox="0 0 261 109" fill="none" xmlns="http://www.w3.org/2000/svg">
<path d="M12.36 55.1902C5.67066 55.1902 3.28597 51.0211 3.28597 47.1188V28.0514H0V12.6103H3.28597V10.2708H21.5935V12.6103H37.554V47.1188C37.554 51.0211 35.127 55.1902 28.3204 55.1902H12.36Z" fill="#212427"/>
<path d="M44.2153 55.1902C37.5729 55.1902 35.207 51.0211 35.207 47.1188V10.2708H69.475V47.1188C69.475 52.0225 65.8229 55.1902 60.171 55.1902H44.2153Z" fill="#212427"/>
<path d="M99.0488 55.1899V10.2704H117.356V10.7899C119.547 10.1742 121.817 9.8809 124.093 9.91951C132.42 9.91951 133.317 15.3613 133.317 17.7008V55.1899H99.0488Z" fill="#212427"/>
<path d="M108.264 96.8343C101.471 96.8343 99.0488 92.6979 99.0488 88.8283V67.3559H92.0872C86.4542 67.3559 83.0884 64.3567 83.0884 59.336V55.1902H67.1279V10.2708H92.0872C100.185 10.2708 101.396 14.9264 101.396 17.7011V29.1229C100.845 30.1087 100.556 31.2184 100.556 32.3468C100.556 33.4752 100.845 34.5849 101.396 35.5707V51.9148H124.219C124.313 51.9148 124.407 51.9148 124.501 51.8914C124.764 51.8615 125.029 51.8459 125.294 51.8447C125.43 51.8447 125.567 51.8447 125.698 51.8447C127.247 51.9025 128.763 52.307 130.134 53.0284L130.195 53.0565L130.331 53.1454C130.473 53.2306 130.609 53.3244 130.74 53.4262C131.712 54.124 132.476 55.0717 132.951 56.1682V56.1915C133.077 56.4346 133.183 56.6883 133.265 56.9496C133.298 57.0619 133.326 57.1507 133.359 57.2396C133.616 57.9306 133.756 58.6598 133.772 59.3967V96.8296L108.264 96.8343Z" fill="#212427"/>
<path d="M139.837 55.1902C134.284 55.1902 130.97 52.1722 130.97 47.1188V17.7011C130.97 12.7693 133.951 10.2708 139.837 10.2708H155.798C164.017 10.2708 165.242 14.9264 165.242 17.7011V47.1188C165.242 52.0225 161.534 55.1902 155.798 55.1902H139.837Z" fill="#212427"/>
<path d="M171.565 55.1901C168.279 55.1901 166.176 54.0998 164.993 53.1874C163.331 51.9007 162.411 49.7436 162.411 47.1046V17.687C162.411 14.2994 163.998 10.2566 171.556 10.2566H178.381V0.43042H196.689V55.176L171.565 55.1901Z" fill="#212427"/>
<path d="M156.136 109C149.348 109 146.93 104.892 146.93 101.045V96.8343H130.97V51.9148H156.136C160.558 51.9148 162.877 53.3793 164.064 55.1574C165.261 53.3793 167.59 51.9148 172.044 51.9148H188.005C195.985 51.9148 197.177 56.5939 197.177 59.4014V109H156.136Z" fill="#212427"/>
<path d="M194.812 96.3664V51.4469H213.119V52.495C215.31 51.8821 217.58 51.5904 219.855 51.6293C228.178 51.6293 229.08 57.0712 229.08 59.4108V96.3757L194.812 96.3664Z" fill="#212427"/>
<path d="M226.732 96.8343V51.9148H251.818C259.799 51.9148 261 56.5939 261 59.4014V88.819C261 92.6886 258.588 96.8249 251.818 96.8249L226.732 96.8343Z" fill="#212427"/>
<path d="M34.7373 25.2439V15.4178H18.7768V13.0782H6.10238V15.4178H2.81641V25.2439H6.10238V47.1188C6.10238 50.3521 8.08805 52.3828 12.3598 52.3828H28.3202C32.592 52.3828 34.7373 50.3521 34.7373 47.1188V27.5835H22.0628V42.0887C22.0628 42.173 21.9314 42.5567 21.8516 42.5567H18.8942C18.8097 42.5567 18.7768 42.1636 18.7768 42.0887V25.2439H34.7373Z" fill="#4CAF50"/>
<path d="M53.9839 13.0782V42.0887C53.9839 42.173 53.721 42.5567 53.6412 42.5567H50.7448C50.6603 42.5567 50.6979 42.1636 50.6979 42.0887V13.0782H38.0234V47.1188C38.0234 50.3521 39.9434 52.3828 44.2151 52.3828H60.1756C64.4473 52.3828 66.663 50.3521 66.663 47.1188V13.0782H53.9839Z" fill="#4CAF50"/>
<path d="M124.092 12.7273C119.901 12.7273 116.887 13.5648 114.54 15.2446V13.0782H101.865V52.3828H114.54V22.6751C114.54 22.5909 114.493 22.9044 114.577 22.9044H117.469C117.553 22.9044 117.826 22.5909 117.826 22.6751V52.3828H130.5V17.7011C130.5 14.3852 128.364 12.7273 124.092 12.7273Z" fill="#4CAF50"/>
<path d="M117.826 64.3845V66.4199H130.97V59.4013C130.924 58.8409 130.794 58.2905 130.585 57.7683C130.526 57.608 130.457 57.4517 130.378 57.3004C130.1 56.632 129.634 56.0583 129.035 55.6486C128.969 55.5945 128.899 55.546 128.824 55.5035L128.787 55.4802C127.942 54.9515 126.829 54.7456 125.463 54.6286C125.074 54.5959 124.656 54.6941 124.219 54.6941H98.6168C98.537 54.6941 98.5792 54.3572 98.5792 54.273V35.5565C98.5792 33.6849 97.5418 32.59 95.4059 32.2812C97.4995 32.0379 98.5792 30.9757 98.5792 29.09V17.6683C98.5792 14.3508 96.3166 13.0453 92.0871 13.0453H69.9443V52.3498H82.6188V36.4408H85.5574C85.6372 36.4408 85.9048 36.2537 85.9048 36.3379V59.303C85.9048 62.541 87.8153 64.5155 92.0871 64.5155H101.865V88.7955C101.865 92.0334 103.992 93.9939 108.263 93.9939H130.97V69.6625H117.826V84.1678H114.793C114.709 84.1678 115.009 83.845 115.009 83.7608V64.3518C115.009 64.2723 114.709 64.5155 114.793 64.5155H117.689C117.769 64.5483 117.826 64.3049 117.826 64.3845ZM85.9048 28.3227C85.9048 28.4069 85.6372 28.5191 85.5574 28.5191H82.6188V22.9042H85.5574C85.6372 22.9042 85.9048 22.5907 85.9048 22.6749V28.3227Z" fill="#4CAF50"/>
<path d="M162.421 37.4096V17.7012C162.421 14.3837 160.074 13.0782 155.793 13.0782H139.832C135.56 13.0782 133.781 14.3837 133.781 17.7012V47.1188C133.781 50.3521 135.56 52.3828 139.832 52.3828H155.793C160.064 52.3828 162.421 50.3521 162.421 47.1188V40.2171H149.746V42.0887C149.631 42.2812 149.47 42.442 149.277 42.5567H146.381C146.296 42.5567 146.475 42.1636 146.475 42.0887V37.4096H162.421ZM146.46 22.6751C146.46 22.5909 146.282 22.9044 146.367 22.9044H149.277C149.357 22.9044 149.746 22.5909 149.746 22.6751V28.5193H146.46V22.6751Z" fill="#4CAF50"/>
<path d="M181.198 3.25208V13.0782H171.565C167.293 13.0782 165.237 14.3836 165.237 17.7011V47.1187C165.237 48.7564 165.707 50.1789 166.735 50.9743C167.763 51.7698 169.349 52.3781 171.565 52.3781H193.872V3.25208H181.198ZM181.198 42.5566H178.095C178.015 42.5566 177.912 42.1636 177.912 42.0887V22.6844C177.912 22.6002 178.015 22.9137 178.095 22.9137H181.198V42.5566Z" fill="#4CAF50"/>
<path d="M187.986 54.7223H172.025C167.754 54.7223 165.702 56.0979 165.702 59.4014V94.0268H178.377V79.0537H181.663V94.0268H194.337V59.4014C194.342 56.0979 192.258 54.7223 187.986 54.7223ZM181.667 69.2275H178.381V64.3846C178.381 64.3051 178.48 64.5484 178.56 64.5484H181.456C181.541 64.5484 181.667 64.3051 181.667 64.3846V69.2275ZM162.665 96.3664C162.581 96.3664 162.89 96.095 162.89 96.0154V77.299C162.89 75.4274 161.618 74.3278 159.482 74.0236C161.581 73.7803 162.421 72.7134 162.421 70.8324V59.4014C162.421 56.0886 160.365 54.7223 156.135 54.7223H133.786V94.0268H146.93V78.1178H149.747V101.045C149.747 104.279 151.864 106.193 156.135 106.193H194.342V96.3664H162.665ZM149.747 70.037V70.1634H146.93V64.5484H149.747V70.037Z" fill="#4CAF50"/>
<path d="M213.495 93.6805V64.3846C213.496 64.3678 213.494 64.3509 213.488 64.3351C213.482 64.3193 213.473 64.3051 213.461 64.2934C213.448 64.2817 213.434 64.273 213.418 64.2677C213.402 64.2624 213.385 64.2607 213.368 64.2629H210.476C210.459 64.2607 210.442 64.2624 210.426 64.2677C210.41 64.273 210.396 64.2817 210.383 64.2934C210.371 64.3051 210.362 64.3193 210.356 64.3351C210.35 64.3509 210.348 64.3678 210.349 64.3846V93.6805H197.534V54.4368H210.349V56.9542C212.54 55.2791 215.724 54.4399 219.902 54.4368C224.174 54.4368 226.31 56.0948 226.31 59.4107V93.6805H213.495Z" fill="#4CAF50"/>
<path d="M251.818 54.7223H229.549V94.0268H251.818C256.09 94.0268 258.184 92.0662 258.184 88.8283V59.4014C258.184 56.0979 256.09 54.7223 251.818 54.7223ZM245.509 83.7936C245.509 83.8778 245.368 84.2007 245.284 84.2007H242.223V64.5484H245.284C245.368 64.5484 245.509 64.3051 245.509 64.3846V83.7936Z" fill="#4CAF50"/>
<path d="M208.756 3.04639V5.05169H203.681V10.0605H201.653V3.04639H208.756Z" fill="#4CAF50"/>
<path fill-rule="evenodd" clip-rule="evenodd" d="M211.369 0.467896V7.63003H206.294V12.6389H199.041V0.467896H211.369ZM208.757 5.05161V3.04631H201.654V10.0605H203.681V5.05161H208.757Z" fill="#212427"/>
<path d="M258.388 10.0559H256.356V5.04706H251.28V3.04639H258.388V10.0559Z" fill="#4CAF50"/>
<path fill-rule="evenodd" clip-rule="evenodd" d="M261 12.6343H253.742V7.62541H248.667V0.467896H261V12.6343ZM256.355 10.0558H258.387V3.04631H251.28V5.04699H256.355V10.0558Z" fill="#212427"/>
<path d="M251.28 47.488V45.4826H256.356V40.4738H258.383V47.488H251.28Z" fill="#4CAF50"/>
<path fill-rule="evenodd" clip-rule="evenodd" d="M248.667 50.0665V42.9042H253.742V37.8954H260.995V50.0665H248.667ZM251.28 45.4826V47.4881H258.383V40.4738H256.355V45.4826H251.28Z" fill="#212427"/>
<path d="M201.648 40.4738H203.68V45.4872H208.756V47.488H201.648V40.4738Z" fill="#4CAF50"/>
<path fill-rule="evenodd" clip-rule="evenodd" d="M199.036 37.8954H206.294V42.9089H211.369V50.0665H199.036V37.8954ZM203.681 40.4738H201.649V47.4881H208.756V45.4873H203.681V40.4738Z" fill="#212427"/>
<ellipse cx="230.186" cy="23.2005" rx="12.3029" ry="16.0162" fill="#4CAF50"/>
<path d="M243.044 23.3763L242.934 23.3246C242.892 22.4722 242.808 20.3487 242.902 18.9951C242.99 17.1848 242.657 15.3787 241.929 13.7149C241.334 12.4978 240.56 11.3747 239.63 10.3825C238.608 9.06576 237.317 7.97611 235.84 7.18443C234.225 6.48004 232.475 6.1276 230.71 6.15113C228.307 6.15113 225.076 6.19246 222.857 7.49959C221.454 8.41566 220.227 9.57021 219.234 10.9095C217.339 13.2138 216.789 16.076 216.993 19.0054C217.082 20.2661 217.051 22.2397 217.03 23.2213C216.896 23.2534 216.769 23.3114 216.658 23.3918C215.773 24.0015 216.056 25.5721 216.386 27.0084L216.449 27.277C216.579 27.8815 216.663 28.3568 216.731 28.7547C216.832 29.561 217.043 30.3501 217.36 31.1003C217.497 31.5226 217.737 31.9052 218.059 32.2143C218.381 32.5233 218.776 32.7493 219.208 32.8724C219.214 32.9193 219.223 32.9659 219.234 33.0119C219.621 35.0785 219.967 36.3443 220.281 36.9126C221.045 38.2559 224.076 41.8518 225.788 42.8489C227.143 43.5517 228.656 43.907 230.186 43.8822C231.528 43.9315 232.857 43.6094 234.023 42.9522C235.526 41.9809 238.259 39.16 239.06 37.7444C239.437 37.0882 239.871 35.5073 240.395 33.017C240.395 32.9705 240.395 32.9292 240.395 32.8827C240.837 32.7676 241.243 32.5438 241.575 32.2321C241.906 31.9204 242.152 31.5311 242.29 31.1003C242.619 30.3433 242.841 29.5454 242.95 28.7288C243.023 28.3258 243.107 27.8505 243.238 27.246L243.295 26.9774C243.646 25.5566 243.923 23.9911 243.044 23.3763ZM226.93 36.1169L229.924 35.6003L232.84 36.1169L230.186 36.8919L226.93 36.1169ZM239.924 29.8293C239.92 29.8376 239.92 29.8468 239.924 29.8551C239.924 29.9068 239.924 29.9533 239.887 30.0101C239.201 30.3789 238.638 30.935 238.264 31.6117C237.932 32.131 237.634 32.6712 237.374 33.2289L237.316 33.3477C236.463 35.2438 235.94 35.8534 235.709 36.0446V35.8276C235.709 35.7501 235.709 35.6829 235.709 35.6313V35.28C235.748 34.5096 235.59 33.742 235.249 33.048C234.688 32.1077 233.154 32.0147 232.191 31.7099C231.369 31.4412 230.95 31.1932 230.176 31.1932C229.404 31.2255 228.646 31.4008 227.94 31.7099C227.233 31.9424 225.846 31.9579 225.16 32.2834C224.865 32.4643 224.619 32.7128 224.442 33.0078C224.265 33.3029 224.163 33.6357 224.144 33.978C224.055 34.6548 224.144 35.3471 223.998 36.0446C222.752 34.3397 222.145 32.2421 220.731 30.6663L220.501 30.4338C220.357 30.2686 220.223 30.0962 220.098 29.9171L219.862 29.5813C219.836 29.5503 219.799 29.4986 219.752 29.447C219.737 29.4357 219.725 29.4217 219.715 29.4056C219.532 28.4963 219.386 27.1324 219.27 25.8562C219.648 26.7942 220.341 27.5752 221.234 28.0675C222.191 28.5161 223.242 28.7339 224.302 28.703C225.262 28.7131 226.215 28.5376 227.108 28.1863C228.097 27.773 228.678 26.471 228.992 25.3034C229.072 25.1545 229.184 25.0254 229.322 24.9263C229.375 24.8772 229.433 24.8338 229.495 24.7971C229.578 24.7436 229.67 24.7051 229.767 24.6834C229.947 24.6509 230.132 24.682 230.291 24.7713C230.403 24.8471 230.493 24.9504 230.552 25.0709C230.595 25.1354 230.634 25.2028 230.668 25.2724C230.971 26.4297 231.563 27.7472 232.542 28.1657C233.434 28.5169 234.387 28.6925 235.348 28.6823C236.407 28.7132 237.459 28.4954 238.416 28.0468C239.371 27.5094 240.1 26.6514 240.468 25.6289C240.384 27.0397 240.202 28.4431 239.924 29.8293ZM240.709 22.5962C239.787 22.405 234.95 21.5009 230.95 22.5962C230.211 22.7478 229.449 22.7478 228.71 22.5962C224.794 21.506 220.098 22.343 219.019 22.56C219.019 22.3482 218.993 22.1777 218.988 22.0433L219.626 20.7827L219.59 20.6122C219.349 19.149 219.282 17.663 219.391 16.1845C219.501 14.3814 222.113 12.4956 222.919 11.8343C223.548 11.801 224.177 11.8114 224.804 11.8653C225.171 11.8653 225.537 11.9066 225.909 11.917C226.492 11.9478 227.073 12.0168 227.647 12.1236C228.368 12.2645 229.1 12.344 229.835 12.3613C230.605 12.3458 231.372 12.2663 232.128 12.1236C232.61 12.0513 233.107 11.9686 233.615 11.9273L233.997 11.8963C234.769 11.8139 235.546 11.7931 236.322 11.8343C236.62 12.0255 240.196 13.9009 240.332 16.2052C240.437 17.6836 240.372 19.1689 240.138 20.6329L240.102 20.8085L240.735 22.064C240.73 22.1673 240.719 22.3637 240.709 22.5858V22.5962Z" fill="#212427"/>
</svg>
